<svg width="76" height="76" viewBox="0 0 76 76" fill="none" xmlns="http://www.w3.org/2000/svg">
<path opacity="0.06" d="M55.0286 0H21.2527C9.70499 0 0.34375 9.36124 0.34375 20.9089V54.6848C0.34375 66.2325 9.70499 75.5938 21.2527 75.5938H55.0286C66.5763 75.5938 75.9375 66.2325 75.9375 54.6848V20.9089C75.9375 9.36124 66.5763 0 55.0286 0Z" fill="#FF6F35"/>
<path d="M38.1407 63.5373C52.3567 63.5373 63.8811 52.013 63.8811 37.7969C63.8811 23.5809 52.3567 12.0565 38.1407 12.0565C23.9246 12.0565 12.4003 23.5809 12.4003 37.7969C12.4003 52.013 23.9246 63.5373 38.1407 63.5373Z" fill="#FFCD1D"/>
<path d="M45.5124 27.4764H34.4548C33.0862 27.4764 31.7737 28.0201 30.8059 28.9878C29.8382 29.9555 29.2946 31.268 29.2946 32.6366C29.2946 34.0052 29.8382 35.3177 30.8059 36.2854C31.7737 37.2531 33.0862 37.7968 34.4548 37.7968H41.8265C43.195 37.7968 44.5076 38.3405 45.4753 39.3082C46.4431 40.2759 46.9867 41.5884 46.9867 42.9571C46.9867 44.3256 46.4431 45.6382 45.4753 46.6058C44.5076 47.5736 43.195 48.1172 41.8265 48.1172H29.2946" stroke="white" stroke-width="2.41257" stroke-linecap="round" stroke-linejoin="round"/>
<path d="M38.1406 21.5791V54.0148" stroke="white" stroke-width="2.41257" stroke-linecap="round" stroke-linejoin="round"/>
</svg>
