<svg width="77" height="76" viewBox="0 0 77 76" fill="none" xmlns="http://www.w3.org/2000/svg">
<path opacity="0.06" d="M55.4036 0H21.6277C10.08 0 0.71875 9.36124 0.71875 20.9089V54.6848C0.71875 66.2325 10.08 75.5938 21.6277 75.5938H55.4036C66.9513 75.5938 76.3125 66.2325 76.3125 54.6848V20.9089C76.3125 9.36124 66.9513 0 55.4036 0Z" fill="#0089FF"/>
<path d="M38.5157 63.5373C52.7318 63.5373 64.2561 52.013 64.2561 37.7969C64.2561 23.5809 52.7318 12.0565 38.5157 12.0565C24.2997 12.0565 12.7753 23.5809 12.7753 37.7969C12.7753 52.013 24.2997 63.5373 38.5157 63.5373Z" fill="#1B76FF"/>
<path fill-rule="evenodd" clip-rule="evenodd" d="M25.1058 32.7031H29.7516V50.8643H25.1058C24.4063 50.8643 23.8392 50.3242 23.8392 49.658V33.9094C23.8392 33.2432 24.4063 32.7031 25.1058 32.7031Z" stroke="white" stroke-width="1.60838" stroke-linecap="round" stroke-linejoin="round"/>
<path fill-rule="evenodd" clip-rule="evenodd" d="M51.7796 47.4641C51.4855 49.7275 49.9732 50.8642 47.2848 50.8642H33.2172C31.3058 50.8642 29.7516 49.4013 29.7516 47.6025V32.7249C34.2128 32.29 36.4434 30.7326 36.4434 26.5448V24.5379C36.4434 22.4227 38.2439 20.7079 40.4649 20.7079C41.3113 20.7079 42.1361 20.9622 42.8219 21.4346C43.7671 22.087 44.3693 23.3225 44.3693 25.1017V30.9109C44.3693 31.405 45.2058 31.8103 46.0424 31.8103H50.5298C52.4202 31.8103 53.9535 33.2336 53.9955 35.0029C54.0235 36.1824 53.2849 39.8335 51.7796 47.4641Z" stroke="white" stroke-width="1.60838" stroke-linecap="round" stroke-linejoin="round"/>
</svg>
