<svg width="76" height="77" viewBox="0 0 76 77" fill="none" xmlns="http://www.w3.org/2000/svg">
<path opacity="0.06" d="M55.0286 0.59375H21.2527C9.70499 0.59375 0.34375 9.95499 0.34375 21.5027V55.2786C0.34375 66.8263 9.70499 76.1875 21.2527 76.1875H55.0286C66.5763 76.1875 75.9375 66.8263 75.9375 55.2786V21.5027C75.9375 9.95499 66.5763 0.59375 55.0286 0.59375Z" fill="#5CC97B"/>
<path d="M38.1407 64.1311C52.3567 64.1311 63.8811 52.6067 63.8811 38.3907C63.8811 24.1746 52.3567 12.6503 38.1407 12.6503C23.9246 12.6503 12.4003 24.1746 12.4003 38.3907C12.4003 52.6067 23.9246 64.1311 38.1407 64.1311Z" fill="#5CC97B"/>
<path fill-rule="evenodd" clip-rule="evenodd" d="M40.8977 44.7636C39.0546 45.9823 36.8249 46.6533 34.4491 46.5551C28.44 46.307 23.7696 41.2339 24.0178 35.2245C24.2659 29.2151 29.3387 24.5455 35.3479 24.7936C41.3561 25.0417 46.0275 30.1138 45.7793 36.1233C45.6918 38.2416 45.0047 40.1935 43.8885 41.8223L51.2251 48.9458C52.1303 49.9273 52.0979 51.4443 51.1678 52.3843L51.125 52.4236L51.0798 52.4628C50.0689 53.3123 48.5543 53.2212 47.65 52.239L40.8977 44.7636ZM34.5529 44.0434C29.9306 43.8525 26.3378 39.9501 26.5287 35.3279C26.7197 30.7056 30.622 27.1128 35.2442 27.3037C39.8665 27.4947 43.4593 31.397 43.2684 36.0192C43.0775 40.6415 39.1751 44.2343 34.5529 44.0434Z" fill="white"/>
</svg>
